<svg xmlns="http://www.w3.org/2000/svg" viewBox="0 0 36.9 11.6"><path d="M13.1 11.1L15 .5h2.9L16 11.1zM26.6.7C26 .5 25.1.3 24 .3c-2.9 0-4.9 1.4-4.9 3.5 0 1.5 1.4 2.4 2.5 2.9s1.5.9 1.5 1.3c0 .7-.9 1-1.7 1-1.2 0-1.8-.2-2.7-.6l-.4-.2-.4 2.4c.7.3 1.9.6 3.2.6 3.1 0 5-1.4 5.1-3.6 0-1.2-.8-2.1-2.4-2.9-1-.5-1.6-.8-1.6-1.3 0-.4.5-.9 1.7-.9.9 0 1.6.2 2.2.4l.3.1.2-2.3M34 .5h-2.2c-.7 0-1.2.2-1.5.9L26 11.2h3s.5-1.3.6-1.6h3.7l.4 1.6h2.7L34 .5m-3.6 6.8c.2-.6 1.2-3 1.2-3s.2-.6.4-1l.2.9s.6 2.5.7 3.1h-2.5zM10.7.5L7.9 7.8l-.3-1.5c-.5-1.7-2.2-3.5-4-4.5l2.6 9.3h3.1L13.9.5h-3.2" fill="#00589f"/><path d="M5.2.5H.5v.2c3.6.9 6.1 3 7.1 5.6l-1-4.9C6.4.7 5.9.5 5.2.5" fill="#f9a51a"/></svg>