<svg xmlns="http://www.w3.org/2000/svg" viewBox="0 0 374 293"><path fill="#6c6bbd" d="M137.7 28.5h98.7v177.4h-98.7z"/><path d="M143.9 117.2c0-36 16.8-68 43.1-88.7-19.2-15.1-43.4-24.1-69.7-24.1C55 4.4 4.5 54.9 4.5 117.2S55 230 117.3 230c26.3 0 50.5-9 69.7-24.1-26.2-20.7-43.1-52.7-43.1-88.7" fill="#d32011"/><path d="M369.5 117.2c0 62.3-50.5 112.8-112.8 112.8-26.3 0-50.5-9-69.7-24.1 26.2-20.7 43.1-52.7 43.1-88.7s-16.8-68-43.1-88.7c19.2-15.1 43.4-24.1 69.7-24.1 62.3 0 112.8 50.5 112.8 112.8" fill="#0099df"/><path d="M269.7 256c1.3 0 3.2.3 4.6.8l-2 6.1c-1.4-.6-2.8-.8-4.1-.8-4.3 0-6.4 2.8-6.4 7.7v16.8h-6.5v-29.9h6.5v3.6c1.7-2.6 4.2-4.3 7.9-4.3zm-24 6.7H235v13.5c0 3 1.1 5 4.3 5 1.7 0 3.8-.6 5.8-1.7l1.9 5.6c-2.1 1.4-5.3 2.3-8.1 2.3-7.7 0-10.4-4.1-10.4-11.1v-13.7h-6.1v-6h6.1v-9.1h6.6v9.1h10.6v6.1zm-83.4 6.4c.7-4.3 3.3-7.3 8-7.3 4.2 0 6.9 2.6 7.6 7.3h-15.6zm22.3 2.6c-.1-9.3-5.8-15.7-14.2-15.7-8.8 0-14.9 6.4-14.9 15.7 0 9.5 6.4 15.7 15.4 15.7 4.5 0 8.6-1.1 12.3-4.2l-3.2-4.8c-2.5 2-5.7 3.1-8.7 3.1-4.2 0-8-1.9-9-7.3h22.2c0-.8.1-1.6.1-2.5zm28.6-7.3c-1.8-1.1-5.5-2.6-9.3-2.6-3.6 0-5.7 1.3-5.7 3.5 0 2 2.3 2.6 5.1 2.9l3.1.4c6.5.9 10.5 3.7 10.5 9 0 5.7-5 9.8-13.7 9.8-4.9 0-9.4-1.3-13-3.9l3.1-5.1c2.2 1.7 5.5 3.1 10 3.1 4.4 0 6.8-1.3 6.8-3.6 0-1.7-1.7-2.6-5.3-3.1l-3.1-.4c-6.7-.9-10.3-4-10.3-8.8 0-6 4.9-9.6 12.5-9.6 4.8 0 9.1 1.1 12.2 3.1l-2.9 5.3zm80.4-2.2c-1.3 0-2.6.2-3.7.7s-2.1 1.1-3 2c-.8.8-1.5 1.9-2 3-.5 1.2-.7 2.5-.7 3.9s.2 2.7.7 3.9c.5 1.2 1.1 2.2 2 3 .8.8 1.8 1.5 3 2s2.4.7 3.7.7 2.6-.2 3.7-.7c1.2-.5 2.2-1.1 3-2 .9-.8 1.5-1.9 2-3 .5-1.2.7-2.5.7-3.9s-.2-2.7-.7-3.9c-.5-1.2-1.1-2.2-2-3-.8-.8-1.8-1.5-3-2s-2.4-.7-3.7-.7zm0-6.2c2.3 0 4.5.4 6.5 1.2 2 .8 3.7 1.9 5.1 3.3s2.6 3.1 3.4 5 1.2 4 1.2 6.3-.4 4.4-1.2 6.3c-.8 1.9-1.9 3.6-3.4 5-1.4 1.4-3.2 2.5-5.1 3.3-2 .8-4.1 1.2-6.5 1.2-2.3 0-4.5-.4-6.5-1.2-2-.8-3.7-1.9-5.1-3.3s-2.6-3.1-3.4-5-1.2-4-1.2-6.3.4-4.4 1.2-6.3c.8-1.9 1.9-3.6 3.4-5 1.4-1.4 3.1-2.5 5.1-3.3 2-.8 4.1-1.2 6.5-1.2zm-169.4 15.7c0-5.3 3.4-9.6 9.1-9.6 5.4 0 9 4.1 9 9.6s-3.6 9.6-9 9.6c-5.7 0-9.1-4.3-9.1-9.6zm24.2 0v-15h-6.5v3.6c-2.1-2.7-5.2-4.4-9.5-4.4-8.4 0-15 6.6-15 15.7s6.6 15.7 15 15.7c4.3 0 7.4-1.7 9.5-4.4v3.6h6.5v-14.8zm-36.7 15v-18.8c0-7.1-4.5-11.8-11.8-11.9-3.8-.1-7.8 1.1-10.5 5.3-2.1-3.3-5.3-5.3-9.9-5.3-3.2 0-6.3.9-8.8 4.4v-3.7h-6.5v29.9h6.6V270c0-5.2 2.9-8 7.3-8 4.3 0 6.5 2.8 6.5 7.9v16.7h6.6V270c0-5.2 3-8 7.3-8 4.5 0 6.6 2.8 6.6 7.9v16.7h6.6v.1z" fill="#fff"/></svg>