<?xml version="1.0" encoding="utf-8"?>
<!-- Generator: Adobe Illustrator 21.1.0, SVG Export Plug-In . SVG Version: 6.00 Build 0)  -->
<svg version="1.1" id="Isolation_Mode" xmlns="http://www.w3.org/2000/svg" xmlns:xlink="http://www.w3.org/1999/xlink" x="0px"
	 y="0px" viewBox="0 0 374 293" style="enable-background:new 0 0 374 293;" xml:space="preserve">
<style type="text/css">
	.st0{fill:#6C6BBD;}
	.st1{fill:#D32011;}
	.st2{fill:#0099DF;}
	.st3{fill:#FFFFFF;}
</style>
<g>
	<rect x="137.7" y="28.5" class="st0" width="98.7" height="177.4"/>
	<path class="st1" d="M143.9,117.2c0-36,16.8-68,43.1-88.7c-19.2-15.1-43.4-24.1-69.7-24.1C55,4.4,4.5,54.9,4.5,117.2
		S55,230,117.3,230c26.3,0,50.5-9,69.7-24.1C160.8,185.2,143.9,153.2,143.9,117.2"/>
	<path class="st2" d="M369.5,117.2c0,62.3-50.5,112.8-112.8,112.8c-26.3,0-50.5-9-69.7-24.1c26.2-20.7,43.1-52.7,43.1-88.7
		s-16.8-68-43.1-88.7c19.2-15.1,43.4-24.1,69.7-24.1C319,4.4,369.5,54.9,369.5,117.2"/>
	<path class="st3" d="M269.7,256c1.3,0,3.2,0.3,4.6,0.8l-2,6.1c-1.4-0.6-2.8-0.8-4.1-0.8c-4.3,0-6.4,2.8-6.4,7.7v16.8h-6.5v-29.9
		h6.5v3.6C263.5,257.7,266,256,269.7,256z M245.7,262.7H235v13.5c0,3,1.1,5,4.3,5c1.7,0,3.8-0.6,5.8-1.7l1.9,5.6
		c-2.1,1.4-5.3,2.3-8.1,2.3c-7.7,0-10.4-4.1-10.4-11.1v-13.7h-6.1v-6h6.1v-9.1h6.6v9.1h10.6L245.7,262.7L245.7,262.7z M162.3,269.1
		c0.7-4.3,3.3-7.3,8-7.3c4.2,0,6.9,2.6,7.6,7.3H162.3z M184.6,271.7c-0.1-9.3-5.8-15.7-14.2-15.7c-8.8,0-14.9,6.4-14.9,15.7
		c0,9.5,6.4,15.7,15.4,15.7c4.5,0,8.6-1.1,12.3-4.2l-3.2-4.8c-2.5,2-5.7,3.1-8.7,3.1c-4.2,0-8-1.9-9-7.3h22.2
		C184.5,273.4,184.6,272.6,184.6,271.7z M213.2,264.4c-1.8-1.1-5.5-2.6-9.3-2.6c-3.6,0-5.7,1.3-5.7,3.5c0,2,2.3,2.6,5.1,2.9l3.1,0.4
		c6.5,0.9,10.5,3.7,10.5,9c0,5.7-5,9.8-13.7,9.8c-4.9,0-9.4-1.3-13-3.9l3.1-5.1c2.2,1.7,5.5,3.1,10,3.1c4.4,0,6.8-1.3,6.8-3.6
		c0-1.7-1.7-2.6-5.3-3.1l-3.1-0.4c-6.7-0.9-10.3-4-10.3-8.8c0-6,4.9-9.6,12.5-9.6c4.8,0,9.1,1.1,12.2,3.1L213.2,264.4z M293.6,262.2
		c-1.3,0-2.6,0.2-3.7,0.7s-2.1,1.1-3,2c-0.8,0.8-1.5,1.9-2,3c-0.5,1.2-0.7,2.5-0.7,3.9s0.2,2.7,0.7,3.9c0.5,1.2,1.1,2.2,2,3
		c0.8,0.8,1.8,1.5,3,2s2.4,0.7,3.7,0.7s2.6-0.2,3.7-0.7c1.2-0.5,2.2-1.1,3-2c0.9-0.8,1.5-1.9,2-3c0.5-1.2,0.7-2.5,0.7-3.9
		s-0.2-2.7-0.7-3.9c-0.5-1.2-1.1-2.2-2-3c-0.8-0.8-1.8-1.5-3-2C296.1,262.4,294.9,262.2,293.6,262.2z M293.6,256
		c2.3,0,4.5,0.4,6.5,1.2c2,0.8,3.7,1.9,5.1,3.3s2.6,3.1,3.4,5s1.2,4,1.2,6.3s-0.4,4.4-1.2,6.3c-0.8,1.9-1.9,3.6-3.4,5
		c-1.4,1.4-3.2,2.5-5.1,3.3c-2,0.8-4.1,1.2-6.5,1.2c-2.3,0-4.5-0.4-6.5-1.2c-2-0.8-3.7-1.9-5.1-3.3s-2.6-3.1-3.4-5s-1.2-4-1.2-6.3
		s0.4-4.4,1.2-6.3c0.8-1.9,1.9-3.6,3.4-5c1.4-1.4,3.1-2.5,5.1-3.3C289.1,256.4,291.2,256,293.6,256z M124.2,271.7
		c0-5.3,3.4-9.6,9.1-9.6c5.4,0,9,4.1,9,9.6s-3.6,9.6-9,9.6C127.6,281.3,124.2,277,124.2,271.7z M148.4,271.7v-15h-6.5v3.6
		c-2.1-2.7-5.2-4.4-9.5-4.4c-8.4,0-15,6.6-15,15.7s6.6,15.7,15,15.7c4.3,0,7.4-1.7,9.5-4.4v3.6h6.5V271.7z M111.7,286.7v-18.8
		c0-7.1-4.5-11.8-11.8-11.9c-3.8-0.1-7.8,1.1-10.5,5.3c-2.1-3.3-5.3-5.3-9.9-5.3c-3.2,0-6.3,0.9-8.8,4.4v-3.7h-6.5v29.9h6.6V270
		c0-5.2,2.9-8,7.3-8c4.3,0,6.5,2.8,6.5,7.9v16.7h6.6V270c0-5.2,3-8,7.3-8c4.5,0,6.6,2.8,6.6,7.9v16.7h6.6
		C111.7,286.6,111.7,286.7,111.7,286.7z"/>
</g>
</svg>
