<?xml version="1.0" encoding="utf-8"?>
<!-- Generator: Adobe Illustrator 21.1.0, SVG Export Plug-In . SVG Version: 6.00 Build 0)  -->
<svg version="1.1" id="Capa_1" xmlns="http://www.w3.org/2000/svg" xmlns:xlink="http://www.w3.org/1999/xlink" x="0px" y="0px"
	 viewBox="0 0 36.9 11.6" style="enable-background:new 0 0 36.9 11.6;" xml:space="preserve">
<style type="text/css">
	.st0{fill:#00589F;}
	.st1{fill:#F9A51A;}
</style>
<g>
	<polygon class="st0" points="13.1,11.1 15,0.5 17.9,0.5 16,11.1 	"/>
	<path class="st0" d="M26.6,0.7C26,0.5,25.1,0.3,24,0.3c-2.9,0-4.9,1.4-4.9,3.5c0,1.5,1.4,2.4,2.5,2.9s1.5,0.9,1.5,1.3
		c0,0.7-0.9,1-1.7,1c-1.2,0-1.8-0.2-2.7-0.6l-0.4-0.2l-0.4,2.4c0.7,0.3,1.9,0.6,3.2,0.6c3.1,0,5-1.4,5.1-3.6c0-1.2-0.8-2.1-2.4-2.9
		c-1-0.5-1.6-0.8-1.6-1.3c0-0.4,0.5-0.9,1.7-0.9c0.9,0,1.6,0.2,2.2,0.4L26.4,3L26.6,0.7"/>
	<path class="st0" d="M34,0.5h-2.2c-0.7,0-1.2,0.2-1.5,0.9L26,11.2h3c0,0,0.5-1.3,0.6-1.6c0.3,0,3.3,0,3.7,0
		c0.1,0.4,0.4,1.6,0.4,1.6h2.7L34,0.5 M30.4,7.3c0.2-0.6,1.2-3,1.2-3s0.2-0.6,0.4-1l0.2,0.9c0,0,0.6,2.5,0.7,3.1H30.4z"/>
	<path class="st0" d="M10.7,0.5L7.9,7.8L7.6,6.3c-0.5-1.7-2.2-3.5-4-4.5l2.6,9.3h3.1l4.6-10.6L10.7,0.5"/>
	<path class="st1" d="M5.2,0.5H0.5v0.2c3.6,0.9,6.1,3,7.1,5.6l-1-4.9C6.4,0.7,5.9,0.5,5.2,0.5"/>
</g>
</svg>
